<?xml version="1.0" encoding="UTF-8"?>
<svg id="text_3" data-name="text 3" xmlns="http://www.w3.org/2000/svg" xmlns:xlink="http://www.w3.org/1999/xlink" viewBox="0 0 286.25 80.55">
  <defs>
    <style>
      .cls-1 {
        mask: url(#mask);
      }

      .cls-2 {
        filter: url(#luminosity-invert-noclip);
      }

      .cls-3 {
        fill: #fff;
      }

      .cls-4 {
        fill: #faf7f0;
      }

      .cls-5 {
        fill: #d99f2e;
      }
    </style>
    <filter id="luminosity-invert-noclip" x="225.25" y="4.75" width="61" height="75.8" color-interpolation-filters="sRGB" filterUnits="userSpaceOnUse">
      <feColorMatrix result="cm" values="-1 0 0 0 1 0 -1 0 0 1 0 0 -1 0 1 0 0 0 1 0"/>
      <feFlood flood-color="#fff" result="bg"/>
      <feBlend in="cm" in2="bg"/>
    </filter>
    <mask id="mask" x="225.25" y="4.75" width="61" height="75.8" maskUnits="userSpaceOnUse">
      <g class="cls-2">
        <path class="cls-3" d="M276.97,34.49l-3.7-1.8s-.05-.03-.07-.04l-4.31-2.64c-.19-.12-.32-.3-.38-.52l-.68-2.83c-.05-.21-.17-.38-.35-.5l-10.03-6.65c-.08-.05-.17-.09-.26-.11l-6.8-1.69c-.11-.03-.22-.08-.31-.15l-1.94-1.52c-.11-.09-.25-.15-.39-.17l-1.32-.22c-.23-.03-.46.03-.64.17l-.81.64c-.16.13-.27.32-.3.52l-.86,4.9c-.03.21-.14.4-.31.52l-6.56,5.1.18,31.38c-.34.32-.54.8-.46,1.33.1.66.65,1.19,1.31,1.26.91.1,1.68-.61,1.68-1.5,0-.4-.16-.76-.41-1.03l-.18-28.49,7.31-5.78.72-3.58c-.26-.27-.42-.64-.42-1.04,0-.83.68-1.51,1.51-1.51s1.51.68,1.51,1.51c0,.47-.22.88-.55,1.15l-.7,4.18-.17.38-.23.22-6.91,5.47.18,25.8c-.34.34-.52.83-.41,1.36.11.59.59,1.07,1.18,1.18.96.19,1.81-.55,1.81-1.48,0-.44-.19-.83-.49-1.1v-20.24s13.13-11.41,13.13-11.41h4.92c.32-.34.8-.54,1.33-.46.66.1,1.19.65,1.26,1.31.1.91-.61,1.68-1.5,1.68-.43,0-.82-.18-1.09-.47h-4.05l-11.93,10.19v18.16c-.34.32-.53.8-.45,1.33.1.66.65,1.18,1.31,1.26.91.1,1.68-.61,1.68-1.5,0-.43-.18-.81-.47-1.09v-12.04s8.83-8.82,8.83-8.82l15.74.24c.32-.34.8-.54,1.33-.46.66.1,1.19.65,1.26,1.31.1.91-.61,1.68-1.5,1.68-.43,0-.81-.18-1.09-.47l-14.9-.22-7.6,7.59v9.94c-.34.32-.54.8-.46,1.33.1.66.65,1.19,1.31,1.27.91.1,1.68-.61,1.68-1.5,0-.42-.17-.8-.45-1.07v-2.27l8.52-7.43c.11-.09.2-.2.25-.34.25-.61.53-1.82.7-1.93.3-.19,5.84-1.48,6.66-1.73.09-.03.19-.04.29-.04l3.34.17c.11,0,.22-.01.33-.05l4.04-1.51c.3-.11.47-.38.54-.69l.45-2.17c.02-.15.08-.27.16-.4l.28-.54c.11-.14.16-.32.16-.5v-.12c0-.32-.18-.61-.47-.75Z"/>
      </g>
    </mask>
  </defs>
  <g>
    <path class="cls-5" d="M77.07,62.65c-.69,0-1.29-.13-1.81-.38-.52-.25-.92-.61-1.22-1.08-.29-.47-.45-1.02-.46-1.67h1.57c0,.5.18.92.51,1.27.33.35.8.52,1.39.52.55,0,.98-.13,1.29-.38.31-.26.46-.59.46-1,0-.35-.09-.63-.27-.86-.18-.23-.46-.43-.85-.62-.38-.18-.88-.37-1.48-.57-.81-.26-1.41-.62-1.79-1.08-.38-.46-.57-1.03-.57-1.7,0-.77.28-1.4.84-1.88.56-.48,1.33-.71,2.31-.71s1.72.25,2.3.73c.58.49.88,1.17.9,2.04h-1.58c0-.23-.07-.46-.2-.68-.13-.22-.32-.4-.56-.55-.24-.14-.54-.22-.9-.22-.44,0-.81.1-1.11.31-.3.22-.45.52-.45.89,0,.46.18.81.55,1.07.36.26.96.52,1.78.79.51.17.97.37,1.37.61s.71.54.94.91c.23.37.34.84.34,1.41,0,.52-.13,1-.39,1.42-.26.42-.64.76-1.13,1.01-.49.25-1.08.38-1.77.38Z"/>
    <path class="cls-5" d="M87.43,62.48v-3.72l-3.23-6.08h1.69l2.28,4.51,2.28-4.51h1.69l-3.23,6.08v3.72h-1.48Z"/>
    <path class="cls-5" d="M99.47,62.65c-.69,0-1.29-.13-1.81-.38s-.92-.61-1.22-1.08-.45-1.02-.46-1.67h1.57c0,.5.18.92.51,1.27.33.35.79.52,1.39.52.55,0,.98-.13,1.29-.38s.46-.59.46-1c0-.35-.09-.63-.27-.86-.18-.23-.46-.43-.85-.62-.38-.18-.88-.37-1.48-.57-.81-.26-1.41-.62-1.79-1.08-.38-.46-.57-1.03-.57-1.7,0-.77.28-1.4.84-1.88.56-.48,1.33-.71,2.31-.71s1.72.25,2.3.73c.58.49.88,1.17.9,2.04h-1.58c0-.23-.07-.46-.2-.68-.13-.22-.32-.4-.56-.55s-.54-.22-.9-.22c-.44,0-.81.1-1.11.31-.3.22-.45.52-.45.89,0,.46.18.81.55,1.07.36.26.96.52,1.78.79.51.17.97.37,1.37.61s.71.54.94.91c.23.37.34.84.34,1.41,0,.52-.13,1-.39,1.42s-.64.76-1.13,1.01-1.08.38-1.77.38Z"/>
    <path class="cls-5" d="M109.83,62.48v-8.47h-2.63v-1.33h6.75v1.33h-2.63v8.47h-1.48Z"/>
    <path class="cls-5" d="M118.69,62.48v-9.8h6.26v1.33h-4.77v2.86h4.35v1.32h-4.35v2.97h4.77v1.33h-6.26Z"/>
    <path class="cls-5" d="M129.38,62.48v-9.8h1.57l2.03,4.42,2.03-4.42h1.57v9.8h-1.41v-6.97l-1.6,3.5h-1.18l-1.6-3.49v6.96h-1.41Z"/>
    <path class="cls-5" d="M144.27,62.65c-.69,0-1.29-.13-1.81-.38-.52-.25-.92-.61-1.22-1.08-.29-.47-.45-1.02-.46-1.67h1.57c0,.5.18.92.51,1.27.33.35.8.52,1.39.52.55,0,.98-.13,1.29-.38.31-.26.46-.59.46-1,0-.35-.09-.63-.27-.86-.18-.23-.46-.43-.85-.62-.38-.18-.88-.37-1.48-.57-.81-.26-1.41-.62-1.79-1.08-.38-.46-.57-1.03-.57-1.7,0-.77.28-1.4.84-1.88.56-.48,1.33-.71,2.31-.71s1.72.25,2.3.73c.58.49.88,1.17.9,2.04h-1.58c0-.23-.07-.46-.2-.68-.13-.22-.32-.4-.56-.55-.24-.14-.54-.22-.9-.22-.44,0-.81.1-1.11.31-.3.22-.45.52-.45.89,0,.46.18.81.55,1.07.36.26.96.52,1.78.79.51.17.97.37,1.37.61s.71.54.94.91c.23.37.34.84.34,1.41,0,.52-.13,1-.39,1.42-.26.42-.64.76-1.13,1.01-.49.25-1.08.38-1.77.38Z"/>
  </g>
  <g>
    <g>
      <path class="cls-4" d="M90.79,41.34h-12.15V4.75h12.15v36.59Z"/>
      <path class="cls-4" d="M109.6,31.62h16.31v9.72h-30.51v-10.11l15.07-16.76h-14.43V4.75h28.6v10.11l-15.03,16.76Z"/>
      <path class="cls-4" d="M143.95,31.62h16.31v9.72h-30.51v-10.11l15.07-16.76h-14.43V4.75h28.6v10.11l-15.03,16.76Z"/>
      <path class="cls-4" d="M176.9,4.75v26.87h13.33v9.72h-25.49V4.75h12.15Z"/>
      <path class="cls-4" d="M219.8,4.75l-12.27,24.04v12.55h-12.15v-12.56l-12.27-24.03h12.99l5.43,12.97,5.55-12.97h12.73Z"/>
    </g>
    <path class="cls-4" d="M20.59,28.17h3.41c-.36,2.99-1.83,4.35-5.2,4.35-4.36,0-6.51-2.97-6.51-9.47s2.07-9.21,6.27-9.21c1.59,0,5.5-.5,5.8,3.72h12c-.61-12.89-11.61-14.47-17.81-14.47C7.87,3.09,0,11.34,0,23.05s6.08,19.06,14.07,19.06c11.96,0,11.63-3.59,13.02-5.89v5.12h9.48v-19.58h-15.99v6.4Z"/>
    <path class="cls-4" d="M68.15,25.82c3.5-1.62,5.57-5.01,5.57-9.59,0-7.38-4.87-11.5-14.48-11.5h-18.68v36.62h12.15v-12.31h4.41l5.55,12.31h13.06l-7.58-15.53ZM57.95,20.21h-5.25v-6.27h5.25c2.34,0,3.58,1.09,3.58,3.15s-1.24,3.12-3.58,3.12Z"/>
  </g>
  <g class="cls-1">
    <polygon class="cls-5" points="286.25 4.75 286.25 57.49 225.25 80.55 225.25 4.75 286.25 4.75"/>
  </g>
</svg>