<?xml version="1.0" encoding="UTF-8"?>
<svg id="text_3" data-name="text 3" xmlns="http://www.w3.org/2000/svg" viewBox="0 0 91.93 103.33">
  <defs></defs>
  <path class="cls-1" d="M90.87,42.5l-8.35-4.05c-.05-.03-.11-.06-.16-.09l-9.71-5.94c-.43-.26-.73-.68-.85-1.17l-1.52-6.38c-.11-.46-.39-.87-.79-1.13l-22.61-15c-.18-.12-.38-.21-.58-.26l-15.32-3.81c-.26-.06-.5-.18-.71-.34l-4.38-3.43c-.26-.2-.56-.33-.89-.38L22.03.02c-.51-.07-1.03.07-1.44.39l-1.82,1.45c-.37.29-.61.71-.69,1.17l-1.95,11.05c-.07.47-.32.89-.7,1.18L.65,26.76l.41,70.72c-.77.73-1.21,1.81-1.03,2.99.23,1.49,1.46,2.67,2.96,2.84,2.05.23,3.79-1.37,3.79-3.37,0-.9-.35-1.7-.92-2.31l-.41-64.22,16.46-13.02,1.62-8.06c-.58-.61-.95-1.43-.95-2.35,0-1.88,1.52-3.4,3.4-3.4s3.4,1.52,3.4,3.4c0,1.05-.49,1.98-1.23,2.6l-1.58,9.42-.37.85-.51.49-15.58,12.32.41,58.15c-.76.76-1.16,1.87-.93,3.07.25,1.33,1.32,2.4,2.65,2.66,2.17.42,4.08-1.23,4.08-3.33,0-.98-.43-1.86-1.09-2.48v-45.62s29.59-25.72,29.59-25.72h11.08c.73-.77,1.81-1.21,2.99-1.03,1.49.23,2.67,1.46,2.84,2.96.23,2.05-1.37,3.79-3.37,3.79-.97,0-1.84-.41-2.46-1.07h-9.13l-26.89,22.97v40.92c-.76.73-1.19,1.81-1.01,2.99.23,1.49,1.46,2.67,2.96,2.84,2.05.23,3.79-1.37,3.79-3.37,0-.96-.41-1.83-1.05-2.45v-27.14s19.9-19.88,19.9-19.88l35.47.53c.73-.77,1.81-1.21,2.99-1.03,1.49.23,2.68,1.46,2.85,2.96.23,2.05-1.37,3.79-3.37,3.79-.97,0-1.84-.41-2.46-1.06l-33.58-.5-17.14,17.12v22.41c-.77.73-1.22,1.81-1.04,3,.22,1.49,1.46,2.68,2.96,2.85,2.05.23,3.79-1.37,3.79-3.37,0-.94-.39-1.8-1.01-2.41v-5.13l19.19-16.74c.25-.2.45-.46.57-.76.57-1.38,1.2-4.1,1.59-4.34.69-.42,13.15-3.32,15-3.9.21-.07.43-.09.65-.08l7.54.38c.25.01.5-.03.74-.11l9.11-3.41c.67-.24,1.07-.86,1.22-1.55l1.02-4.88c.04-.33.18-.6.36-.9l.62-1.21c.24-.32.37-.72.37-1.12v-.27c0-.72-.41-1.38-1.06-1.69Z"></path>
</svg>