<?xml version="1.0" encoding="UTF-8"?>
<svg id="text_3" data-name="text 3" xmlns="http://www.w3.org/2000/svg" viewBox="0 0 169.2 120.14">
  <defs>
    <style>
      .cls-1 {
        fill: #1a1813;
      }
    </style>
  </defs>
  <g>
    <path class="cls-1" d="M53.81,120.14c-.49,0-.93-.09-1.29-.27-.37-.18-.66-.44-.87-.77s-.32-.73-.33-1.19h1.12c0,.35.13.66.37.91.24.25.57.38.99.38.39,0,.7-.09.92-.28.22-.18.33-.42.33-.71,0-.25-.06-.45-.19-.61-.13-.16-.33-.31-.61-.44s-.63-.26-1.06-.41c-.58-.19-1.01-.44-1.28-.77s-.41-.74-.41-1.21c0-.55.2-1,.6-1.34.4-.34.95-.51,1.65-.51s1.23.17,1.64.53c.41.35.63.83.64,1.46h-1.13c0-.17-.05-.33-.14-.49-.09-.16-.23-.29-.4-.39-.17-.1-.39-.16-.64-.16-.31,0-.58.07-.79.22-.21.16-.32.37-.32.64,0,.33.13.58.39.76s.68.37,1.27.56c.37.12.69.27.97.44s.51.39.67.65c.16.26.25.6.25,1,0,.37-.09.71-.28,1.01s-.46.54-.8.72c-.35.18-.77.27-1.26.27Z"/>
    <path class="cls-1" d="M62.21,120.02v-2.66l-2.31-4.34h1.21l1.63,3.22,1.63-3.22h1.21l-2.31,4.34v2.66h-1.06Z"/>
    <path class="cls-1" d="M71.81,120.14c-.49,0-.93-.09-1.29-.27-.37-.18-.66-.44-.87-.77s-.32-.73-.33-1.19h1.12c0,.35.13.66.37.91.24.25.57.38.99.38.39,0,.7-.09.92-.28.22-.18.33-.42.33-.71,0-.25-.06-.45-.19-.61-.13-.16-.33-.31-.61-.44s-.63-.26-1.06-.41c-.58-.19-1.01-.44-1.28-.77s-.41-.74-.41-1.21c0-.55.2-1,.6-1.34.4-.34.95-.51,1.65-.51s1.23.17,1.64.53c.41.35.63.83.64,1.46h-1.13c0-.17-.05-.33-.14-.49-.09-.16-.23-.29-.4-.39-.17-.1-.39-.16-.64-.16-.31,0-.58.07-.79.22-.21.16-.32.37-.32.64,0,.33.13.58.39.76s.68.37,1.27.56c.37.12.69.27.97.44s.51.39.67.65c.16.26.25.6.25,1,0,.37-.09.71-.28,1.01s-.46.54-.8.72c-.35.18-.77.27-1.26.27Z"/>
    <path class="cls-1" d="M80.21,120.02v-6.05h-1.88v-.95h4.82v.95h-1.88v6.05h-1.06Z"/>
    <path class="cls-1" d="M87.54,120.02v-7h4.47v.95h-3.41v2.04h3.11v.94h-3.11v2.12h3.41v.95h-4.47Z"/>
    <path class="cls-1" d="M96.17,120.02v-7h1.12l1.45,3.16,1.45-3.16h1.12v7h-1.01v-4.98l-1.14,2.5h-.84l-1.14-2.49v4.97h-1.01Z"/>
    <path class="cls-1" d="M107.81,120.14c-.49,0-.93-.09-1.29-.27-.37-.18-.66-.44-.87-.77s-.32-.73-.33-1.19h1.12c0,.35.13.66.37.91.24.25.57.38.99.38.39,0,.7-.09.92-.28.22-.18.33-.42.33-.71,0-.25-.06-.45-.19-.61-.13-.16-.33-.31-.61-.44s-.63-.26-1.06-.41c-.58-.19-1.01-.44-1.28-.77s-.41-.74-.41-1.21c0-.55.2-1,.6-1.34.4-.34.95-.51,1.65-.51s1.23.17,1.64.53c.41.35.63.83.64,1.46h-1.13c0-.17-.05-.33-.14-.49-.09-.16-.23-.29-.4-.39-.17-.1-.39-.16-.64-.16-.31,0-.58.07-.79.22-.21.16-.32.37-.32.64,0,.33.13.58.39.76s.68.37,1.27.56c.37.12.69.27.97.44s.51.39.67.65c.16.26.25.6.25,1,0,.37-.09.71-.28,1.01s-.46.54-.8.72c-.35.18-.77.27-1.26.27Z"/>
  </g>
  <g>
    <g>
      <path class="cls-1" d="M69.88,99c-3.12.04-6.24.1-9.36.17,0-8.5,0-17.01.01-25.51,3.12,0,6.24-.01,9.36-.02,0,8.46,0,16.91,0,25.37Z"/>
      <path class="cls-1" d="M84.37,92.18c4.19,0,8.38.02,12.56.05,0,2.24,0,4.49,0,6.73-7.84-.09-15.67-.09-23.51-.01,0-2.33,0-4.66,0-7,3.87-3.9,7.74-7.76,11.61-11.62-3.7,0-7.41,0-11.11.02,0-2.24,0-4.49,0-6.73,7.34,0,14.68,0,22.01,0,0,2.33,0,4.67,0,7-3.86,3.85-7.72,7.7-11.58,11.56Z"/>
      <path class="cls-1" d="M110.83,92.42c4.19.08,8.37.17,12.56.28,0,2.29,0,4.59,0,6.88-7.83-.28-15.67-.47-23.5-.58,0-2.34,0-4.67,0-7.01,3.87-3.83,7.73-7.67,11.6-11.54-3.7-.03-7.41-.06-11.11-.08,0-2.25,0-4.5,0-6.74,7.34.01,14.68.03,22.01.06,0,2.38,0,4.76,0,7.14-3.85,3.9-7.71,7.75-11.57,11.59Z"/>
      <path class="cls-1" d="M136.18,73.76c0,6.45.01,12.9.02,19.35,3.42.12,6.84.26,10.26.41,0,2.38,0,4.75,0,7.13-6.54-.37-13.08-.68-19.62-.93,0-8.67-.01-17.33-.02-26,3.12.01,6.24.03,9.36.05Z"/>
      <path class="cls-1" d="M169.2,73.99c-3.15,6.14-6.29,12.14-9.44,18.03,0,3.15,0,6.3,0,9.45-3.12-.21-6.23-.41-9.35-.6,0-3.09,0-6.19,0-9.28-3.15-6.05-6.3-11.98-9.46-17.81,3.33.02,6.66.04,10,.06,1.39,3.21,2.79,6.44,4.18,9.71,1.42-3.19,2.85-6.4,4.27-9.64,3.27.03,6.53.05,9.8.08Z"/>
    </g>
    <path class="cls-1" d="M15.84,91.26c.87-.04,1.75-.07,2.62-.11-.28,2.22-1.41,3.28-4.01,3.41-3.36.18-5.01-1.97-5.01-6.87,0-4.78,1.6-6.98,4.83-7.04,1.22-.03,4.23-.46,4.46,2.65,3.08-.08,6.16-.15,9.24-.22-.46-9.33-8.93-10.46-13.7-10.45C6.06,72.63,0,79.01,0,88.08c0,9.05,4.67,14.33,10.82,13.88,9.2-.62,8.95-3.22,10.02-4.97,0,1.26,0,2.51,0,3.77,2.43-.14,4.86-.27,7.3-.4,0-4.74,0-9.47.01-14.21-4.1.11-8.2.23-12.3.37,0,1.58,0,3.17,0,4.75Z"/>
    <path class="cls-1" d="M52.45,88.47c2.7-1.19,4.29-3.58,4.29-6.78,0-5.16-3.75-8.03-11.14-8.01-4.79.02-9.59.04-14.38.07,0,8.82-.01,17.63-.02,26.45,3.12-.15,6.24-.29,9.36-.42,0-2.92,0-5.84,0-8.77,1.13-.03,2.27-.06,3.4-.09,1.42,2.87,2.84,5.73,4.26,8.58,3.35-.11,6.7-.21,10.06-.29-1.94-3.57-3.89-7.15-5.83-10.75ZM44.6,84.65c-1.35.02-2.69.05-4.04.08,0-1.49,0-2.98,0-4.47,1.35-.02,2.69-.04,4.04-.05,1.8-.02,2.76.74,2.76,2.19,0,1.44-.96,2.22-2.76,2.25Z"/>
  </g>
  <path class="cls-1" d="M120.88,23.42l-4.6-2.23s-.06-.03-.09-.05l-5.35-3.27c-.23-.14-.4-.38-.47-.64l-.84-3.51c-.06-.26-.22-.48-.43-.62l-12.46-8.27c-.1-.07-.21-.11-.32-.14l-8.44-2.1c-.14-.04-.27-.1-.39-.19l-2.41-1.89c-.14-.11-.31-.18-.49-.21l-1.64-.28c-.28-.04-.57.04-.79.21l-1,.8c-.2.16-.34.39-.38.65l-1.07,6.09c-.04.26-.18.49-.38.65l-8.15,6.34.23,38.97c-.42.4-.67,1-.57,1.65.13.82.81,1.47,1.63,1.57,1.13.13,2.09-.75,2.09-1.86,0-.49-.19-.94-.51-1.27l-.23-35.39,9.07-7.17.89-4.44c-.32-.34-.52-.79-.52-1.29,0-1.04.84-1.87,1.87-1.87s1.87.84,1.87,1.87c0,.58-.27,1.09-.68,1.43l-.87,5.19-.21.47-.28.27-8.58,6.79.23,32.04c-.42.42-.64,1.03-.51,1.69.14.73.73,1.33,1.46,1.47,1.2.23,2.25-.68,2.25-1.84,0-.54-.23-1.03-.6-1.37v-25.14s16.31-14.17,16.31-14.17h6.11c.4-.43,1-.67,1.65-.57.82.13,1.47.81,1.57,1.63.13,1.13-.75,2.09-1.86,2.09-.54,0-1.02-.23-1.36-.59h-5.03l-14.82,12.66v22.55c-.42.4-.66,1-.56,1.65.13.82.81,1.47,1.63,1.56,1.13.13,2.09-.75,2.09-1.86,0-.53-.22-1.01-.58-1.35v-14.96s10.96-10.95,10.96-10.95l19.54.29c.4-.43,1-.67,1.65-.57.82.12,1.48.81,1.57,1.63.13,1.13-.75,2.09-1.86,2.09-.53,0-1.01-.23-1.35-.58l-18.51-.28-9.44,9.43v12.35c-.43.4-.67,1-.57,1.65.12.82.81,1.48,1.63,1.57,1.13.13,2.09-.75,2.09-1.86,0-.52-.21-.99-.55-1.33v-2.83l10.58-9.22c.14-.11.25-.25.31-.42.31-.76.66-2.26.88-2.39.38-.23,7.25-1.83,8.27-2.15.12-.04.24-.05.36-.05l4.15.21c.14,0,.28-.01.41-.06l5.02-1.88c.37-.13.59-.47.67-.85l.56-2.69c.02-.18.1-.33.2-.5l.34-.67c.13-.18.2-.39.2-.62v-.15c0-.4-.23-.76-.58-.93Z"/>
</svg>